<svg width="66" height="14" viewBox="0 0 66 14" fill="none" xmlns="http://www.w3.org/2000/svg">
<path fill-rule="evenodd" clip-rule="evenodd" d="M14 0.28479H0.969238V12.7152H14V0.28479ZM4.27337 8.63673V8.71645H4.90498L5.22385 7.76597H7.22292L7.54179 8.71645H8.20412H10.271V8.1339H9.44926V5.00653H10.271V4.42397H7.99595V5.00653H8.81765V8.1339H8.01046L8.20412 8.71645L6.76301 4.42397H5.69603L4.27337 8.63673ZM7.02669 7.17116H5.42008L6.15593 4.9636H6.28471L7.02669 7.17116Z" fill="white"/>
<path d="M21.0435 10.9784C19.8667 10.9784 18.896 10.6139 18.1316 9.88489C17.3772 9.14628 17 8.21583 17 7.09352C17 5.98081 17.3822 5.05516 18.1467 4.31655C18.9212 3.57794 19.8868 3.20863 21.0435 3.20863C21.8582 3.20863 22.5824 3.40048 23.2161 3.78417C23.8598 4.15827 24.3326 4.70024 24.6343 5.41007L23.3368 6.05755C23.196 5.63549 22.9144 5.27578 22.4919 4.97842C22.0795 4.68105 21.5967 4.53237 21.0435 4.53237C20.3193 4.53237 19.7208 4.77218 19.2481 5.2518C18.7753 5.73141 18.5389 6.34532 18.5389 7.09352C18.5389 7.86091 18.7753 8.47962 19.2481 8.94964C19.7309 9.41966 20.3293 9.65468 21.0435 9.65468C21.5967 9.65468 22.0896 9.51559 22.5221 9.23741C22.9546 8.95923 23.2664 8.56115 23.4575 8.04317L24.74 8.6187C24.4483 9.39568 23.9705 9.98561 23.3066 10.3885C22.6528 10.7818 21.8985 10.9784 21.0435 10.9784Z" fill="white"/>
<path d="M43.4517 11.0833L43.4667 3.5H44.9755V4.71942H45.2773C45.408 4.29736 45.6695 3.94245 46.0618 3.65468C46.4541 3.35731 46.9319 3.20863 47.4951 3.20863C48.3501 3.20863 49.019 3.47242 49.5018 4C49.9947 4.51799 50.2411 5.15108 50.2411 5.89928L50.226 11.0833H48.7172L48.7323 6.31655C48.7323 5.80815 48.5563 5.39089 48.2043 5.06475C47.8623 4.73861 47.4348 4.57554 46.9218 4.57554C46.3485 4.57554 45.8808 4.75779 45.5187 5.1223C45.1566 5.47722 44.9755 5.92806 44.9755 6.47482L44.9604 11.0833H43.4517Z" fill="white"/>
<path d="M52.0198 11.0833L52.0349 4.64748H50.4959L50.5174 3.5H52.0714L52.05 2.08633C52.05 1.41487 52.2511 0.901679 52.6535 0.546763C53.0659 0.182254 53.5839 0 54.2075 0H55.3541V1.2518H54.3885C54.1371 1.2518 53.9309 1.31894 53.7699 1.45324C53.6191 1.58753 53.5436 1.79377 53.5436 2.07194V3.5H55.7313V4.64748H53.5436L53.5285 11.0833H52.0198Z" fill="white"/>
<path d="M56.2193 11.0833L56.2344 3.5H57.7432L57.7281 11.0833H56.2193ZM56.2193 2.10072V0.679579H57.7432V2.10072H56.2193Z" fill="white"/>
<path d="M61.9414 14C60.8048 14 59.8845 13.8129 59.1804 13.4388C58.4763 13.0647 58.1243 12.5084 58.1243 11.7698C58.1243 11.3477 58.2802 10.988 58.592 10.6906C58.9038 10.3933 59.3111 10.2446 59.8141 10.2446H60.0253V9.95683C59.7135 9.88969 59.4671 9.7554 59.286 9.55396C59.115 9.35252 59.0295 9.11271 59.0295 8.83453C59.0295 8.3741 59.2458 8.02398 59.6783 7.78417C59.0949 7.32374 58.8032 6.69065 58.8032 5.88489C58.8032 5.07914 59.0899 4.43165 59.6632 3.94245C60.2466 3.45324 60.9909 3.20863 61.8962 3.20863C62.2583 3.20863 62.6153 3.26619 62.9674 3.38129L65.8793 3.2518V4.48921H63.7972V4.77698C64.1392 4.85372 64.4108 5.02638 64.6119 5.29496C64.8232 5.55396 64.9288 5.85611 64.9288 6.20144C64.9288 6.91127 64.6321 7.47242 64.0386 7.88489C63.4552 8.29736 62.7411 8.5036 61.8962 8.5036C61.4838 8.5036 61.1267 8.45084 60.8249 8.34532C60.6037 8.43165 60.493 8.58993 60.493 8.82014C60.493 8.99281 60.5634 9.1271 60.7042 9.22302C60.8551 9.30935 61.0362 9.35252 61.2474 9.35252H63.4804C64.2448 9.35252 64.8533 9.54916 65.306 9.94245C65.7687 10.3261 66 10.8441 66 11.4964C66 11.9664 65.8743 12.3741 65.6228 12.7194C65.3814 13.0647 65.0545 13.3237 64.6421 13.4964C64.2297 13.6787 63.8022 13.8082 63.3597 13.8849C62.9171 13.9616 62.4444 14 61.9414 14ZM59.6481 11.554C59.6481 12.3501 60.4125 12.7482 61.9414 12.7482C63.6312 12.7482 64.4762 12.3453 64.4762 11.5396C64.4762 11.2518 64.3655 11.0216 64.1442 10.8489C63.9229 10.6763 63.6061 10.5899 63.1937 10.5899H60.8551C60.493 10.5899 60.2013 10.6811 59.98 10.8633C59.7588 11.0456 59.6481 11.2758 59.6481 11.554ZM60.2818 5.88489C60.2818 6.33573 60.4276 6.70504 60.7193 6.99281C61.0211 7.27098 61.4134 7.41007 61.8962 7.41007C62.389 7.41007 62.7813 7.27098 63.073 6.99281C63.3748 6.71463 63.5256 6.34532 63.5256 5.88489C63.5256 5.46283 63.3748 5.11271 63.073 4.83453C62.7813 4.54676 62.389 4.40288 61.8962 4.40288C61.4134 4.40288 61.0211 4.54676 60.7193 4.83453C60.4276 5.11271 60.2818 5.46283 60.2818 5.88489Z" fill="white"/>
<path d="M26.3828 7.3942H26V6.6058H26.3828V3.48759H26.7657V3H27.5931V3.56623H26.8336V6.69231H26.4508V7.30769H26.8336V10.418H27.5931V11H26.7657V10.5124H26.3828V7.3942Z" fill="#FF1CF7"/>
<path d="M41.1664 10.418V7.30769H41.5492V6.69231H41.1664V3.56623H40.4069V3H41.2343V3.48759H41.6172V6.6058H42V7.3942H41.6172V10.5124H41.2343V11H40.4069V10.418H41.1664Z" fill="#FF1CF7"/>
</svg>
