<svg width="64" height="64" viewBox="0 0 64 64" fill="none" xmlns="http://www.w3.org/2000/svg">
<path d="M40 32H40.0267M32 32H32.0267M24 32H24.0267M16 50.6667C14.5855 50.6667 13.229 50.1048 12.2288 49.1046C11.2286 48.1044 10.6667 46.7479 10.6667 45.3334V34.6667L8 32L10.6667 29.3334V18.6667C10.6667 17.2522 11.2286 15.8957 12.2288 14.8955C13.229 13.8953 14.5855 13.3334 16 13.3334M48 50.6667C49.4145 50.6667 50.771 50.1048 51.7712 49.1046C52.7714 48.1044 53.3333 46.7479 53.3333 45.3334V34.6667L56 32L53.3333 29.3334V18.6667C53.3333 17.2522 52.7714 15.8957 51.7712 14.8955C50.771 13.8953 49.4145 13.3334 48 13.3334" stroke="url(#paint0_linear_1367_22686)" stroke-width="2" stroke-linecap="round" stroke-linejoin="round"/>
<defs>
<linearGradient id="paint0_linear_1367_22686" x1="8" y1="13" x2="32" y2="50.6667" gradientUnits="userSpaceOnUse">
<stop stop-color="#FF1CF7"/>
<stop offset="1" stop-color="#FF1CB2"/>
</linearGradient>
</defs>
</svg>
